<svg width="78" height="56" viewBox="0 0 78 56" fill="none" xmlns="http://www.w3.org/2000/svg">
<rect x="28.9512" y="11.2617" width="19.3026" height="19.7048" fill="#5DCA7B"/>
<path d="M0 11.0773C0.768084 8.90169 2.58575 8.94995 4.46374 9.07461C4.64068 7.75962 4.2124 6.3843 5.26198 5.31863C6.32564 4.23688 7.69894 4.64505 9.03203 4.50229C9.03203 3.86893 9.01997 3.27376 9.03404 2.6786C9.06822 1.16052 10.1198 0.0445907 11.6419 0.0385587C16.7591 0.016441 21.8763 -0.00969911 26.9915 0.054643C30.9747 0.10491 34.5437 1.48626 37.7528 3.80056C38.3318 4.21879 38.734 4.2208 39.309 3.80056C43.0047 1.11026 47.1507 -0.082084 51.7251 0.00437573C56.1124 0.0868141 60.5037 0.0204621 64.8931 0.0224728C67.0546 0.0224728 68.0277 0.989615 68.0298 3.12899C68.0298 3.55325 68.0298 3.97951 68.0298 4.46811C69.2905 4.69331 70.6778 4.21678 71.7455 5.26435C72.8293 6.33001 72.4573 7.69326 72.5739 9.05249C73.1409 9.05249 73.6858 9.04646 74.2307 9.05249C75.9861 9.07461 77.0558 10.1262 77.0578 11.8614C77.0638 19.5362 77.0618 27.2131 77.0578 34.8879C77.0578 35.8228 76.6375 36.3557 75.9257 36.3537C75.214 36.3517 74.8038 35.8188 74.8018 34.8798C74.8018 27.3799 74.8018 19.8801 74.8018 12.3802C74.8018 11.6671 74.4405 11.3098 73.718 11.3085C73.3681 11.3085 73.0183 11.3085 72.5438 11.3085V12.2093C72.5438 22.8941 72.5438 33.5809 72.5438 44.2657C72.5438 46.4433 71.5646 47.4266 69.3709 47.4286C60.8415 47.4326 52.3142 47.4286 43.7848 47.4286C43.4611 47.4286 43.1374 47.4286 42.6689 47.4286C42.6689 48.3354 42.6689 49.2 42.6689 50.0646C42.6689 51.7033 42.4296 51.9426 40.799 51.9446C39.2447 51.9446 37.6884 51.9466 36.1342 51.9446C34.6684 51.9426 34.3929 51.6591 34.3909 50.1671C34.3909 49.2945 34.3909 48.4198 34.3909 47.4306C34.0068 47.4306 33.6912 47.4306 33.3755 47.4306C24.8461 47.4306 16.3188 47.4386 7.78942 47.4165C7.15605 47.4165 6.47242 47.32 5.90138 47.0646C4.98451 46.6565 4.52406 45.826 4.52205 44.8207C4.50998 38.7766 4.51199 32.7304 4.51803 26.6863C4.51803 25.89 5.00662 25.3753 5.67618 25.3974C6.34172 25.4195 6.76799 25.9302 6.76799 26.7546C6.77201 32.5233 6.77 38.294 6.77 44.0627C6.77 44.8026 7.146 45.1732 7.898 45.1746C16.4274 45.1746 24.9547 45.1746 33.4841 45.1746C33.7515 45.1746 34.0169 45.1746 34.2843 45.1746C34.2984 45.1143 34.3145 45.0559 34.3285 44.9956C34.1536 44.887 33.9887 44.7624 33.8058 44.6719C31.4271 43.5037 28.9158 42.9125 26.2617 42.9146C21.5466 42.9206 16.8295 42.9206 12.1144 42.9146C10.4496 42.9125 9.41808 42.2108 9.10643 40.8616C9.02399 40.5017 9.03002 40.1157 9.03002 39.7417C9.026 29.081 9.02801 18.4203 9.02801 7.75961C9.02801 7.46404 9.02801 7.17048 9.02801 6.88899C6.86651 6.51902 6.77 6.59543 6.77 8.62622C6.77 12.5893 6.77 16.5524 6.77 20.5154C6.77 20.6904 6.77402 20.8673 6.77 21.0422C6.74989 21.8767 6.34574 22.3593 5.65809 22.3693C4.97043 22.3794 4.53411 21.8908 4.514 21.0764C4.50395 20.626 4.51199 20.1736 4.51199 19.7212C4.51199 17.2119 4.51199 14.7045 4.51199 12.1952C4.51199 11.9258 4.51199 11.6563 4.51199 11.401C2.34045 11.033 2.25399 11.1034 2.25399 13.1422C2.25399 24.9309 2.25399 36.7216 2.25399 48.5103C2.25399 49.2945 2.65881 49.6866 3.46844 49.6866C12.6734 49.6866 21.8804 49.6866 31.0853 49.6866C32.5672 49.6866 32.6959 49.7951 32.9331 51.2388C33.1201 52.3809 33.9827 53.334 35.1348 53.3722C37.3888 53.4486 39.6468 53.4506 41.9008 53.3722C43.0851 53.332 43.9417 52.3688 44.1287 51.1765C44.3378 49.8354 44.5107 49.6846 45.878 49.6846C55.1332 49.6846 64.3904 49.6846 73.6456 49.6846C74.4164 49.6846 74.8018 49.2972 74.8018 48.5224C74.8018 45.8884 74.8038 43.2544 74.8018 40.6204C74.8018 39.987 75.0853 39.4682 75.6985 39.428C76.0886 39.4039 76.537 39.7155 76.8909 39.9729C77.0397 40.0795 77.0517 40.4334 77.0517 40.6767C77.0618 43.5359 77.0698 46.3951 77.0517 49.2543C77.0417 50.7181 76.0585 51.7636 74.6087 51.9064C74.2609 51.9406 73.907 51.9385 73.5572 51.9385C64.7785 51.9385 55.9978 51.9466 47.2191 51.9265C46.5958 51.9265 46.2781 52.0532 46.0127 52.6946C45.2828 54.4539 43.9075 55.5417 41.9913 55.6302C39.6891 55.7367 37.3747 55.7388 35.0745 55.6302C33.1262 55.5397 31.7508 54.4318 31.0149 52.6363C30.7797 52.0632 30.4962 51.9265 29.9231 51.9265C21.068 51.9426 12.215 51.9184 3.35987 51.9566C1.74729 51.9627 0.587122 51.454 0 49.8977L0 11.0773ZM57.5118 21.372C57.9421 21.8284 58.298 22.1783 58.6217 22.5583C58.9796 22.9785 59.3174 23.0952 59.9086 22.9122C60.4474 22.7453 61.117 22.7855 61.676 22.9343C63.4816 23.4169 64.4829 25.2707 63.9822 27.0562C63.4735 28.8739 61.6177 29.9174 59.798 29.4107C58.0346 28.9181 56.9911 27.0944 57.4877 25.2788C57.6063 24.8445 57.4696 24.6273 57.2163 24.3076C56.1164 22.9243 54.7572 22.2748 52.9777 22.5925C52.6379 22.6528 52.276 22.6005 51.9261 22.6005C51.2385 22.6005 50.5508 22.6005 49.8672 22.6005V27.1809C50.963 27.1809 52.0126 27.205 53.0622 27.1708C53.6996 27.1507 54.154 27.3759 54.542 27.8786C55.5695 29.2077 56.6392 30.5046 57.6626 31.8377C57.9502 32.2137 58.2136 32.3665 58.7162 32.2941C60.3549 32.0588 61.7544 32.8752 62.3516 34.3329C62.9266 35.7344 62.5084 37.3329 61.3261 38.2598C60.1237 39.2028 58.4227 39.2249 57.2002 38.3141C55.9475 37.3791 55.5092 35.7927 56.1385 34.2806C56.2994 33.8966 56.2531 33.6553 56.0018 33.3477C55.0487 32.1835 54.1258 30.9952 53.1848 29.8209C53.0662 29.6741 52.8973 29.4691 52.7465 29.463C51.7793 29.4309 50.8122 29.4469 49.8551 29.4469C49.7063 31.8336 48.7191 32.7505 46.3987 32.7505C44.8686 32.7505 43.3385 32.7505 41.8083 32.7505H39.7293V44.0586C39.8941 43.9842 39.9826 43.948 40.0691 43.9058C41.5932 43.1558 43.069 42.2772 44.6494 41.676C48.4597 40.2303 52.467 40.7048 56.416 40.6927C56.9508 40.6927 57.2806 41.0627 57.365 41.5996C57.4857 42.3596 56.9991 42.8884 56.1023 42.9085C54.8235 42.9367 53.5407 42.8542 52.2659 42.9327C50.3719 43.0493 48.4597 43.1337 46.5998 43.4796C45.2567 43.7289 43.9899 44.3783 42.689 44.8509C42.7151 44.9594 42.7413 45.068 42.7674 45.1766C43.0308 45.1766 43.2942 45.1766 43.5576 45.1766C52.1111 45.1766 60.6646 45.1766 69.2201 45.1766C70.2938 45.1766 70.2938 45.1746 70.2938 44.0848C70.2938 32.27 70.2938 20.4551 70.2938 8.6403C70.2938 6.58336 70.2395 6.54114 68.0358 6.88496C68.0358 7.16646 68.0358 7.46002 68.0358 7.75358C68.0358 18.4907 68.0358 29.2258 68.0358 39.9629C68.0358 41.7544 67.0606 42.8382 65.3314 42.9025C64.1049 42.9487 62.8723 42.9347 61.6438 42.9025C60.8797 42.8824 60.4052 42.3978 60.4213 41.7544C60.4374 41.109 60.9179 40.6807 61.6961 40.6666C62.7235 40.6485 63.753 40.6646 64.7805 40.6606C65.7617 40.6566 65.7778 40.6405 65.7778 39.6411C65.7778 27.5247 65.7778 15.4103 65.7778 3.29387C65.7778 2.28651 65.7778 2.28249 64.7865 2.28249C60.3208 2.28249 55.855 2.33879 51.3913 2.26439C47.1527 2.19402 43.4169 3.51504 40.053 6.01635C39.8901 6.13699 39.6931 6.35012 39.6891 6.52505C39.6569 7.7194 39.673 8.91375 39.673 10.1745C40.1857 10.1745 40.6079 10.1644 41.0282 10.1765C41.7922 10.1986 42.2808 10.6309 42.2929 11.2803C42.307 11.9559 41.8003 12.4063 40.998 12.4305C40.8231 12.4365 40.6461 12.4305 40.4712 12.4305C37.1596 12.4305 33.848 12.4305 30.5384 12.4305C29.5954 12.4305 29.5069 12.5189 29.5069 13.468C29.5069 18.7862 29.5069 24.1045 29.5069 29.4228C29.5069 30.4181 29.5813 30.4905 30.5826 30.4905C35.8748 30.4905 41.1689 30.4905 46.4611 30.4905C47.5167 30.4905 47.5669 30.4382 47.5669 29.3786C47.5669 24.187 47.5669 18.9934 47.5669 13.8017C47.5669 12.5953 47.5669 12.5994 46.3444 12.4204C45.7513 12.3339 45.3773 11.9861 45.327 11.3869C45.2768 10.7817 45.6025 10.3735 46.1735 10.2127C47.5931 9.81253 49.2278 10.6952 49.6701 12.1087C49.7948 12.5069 49.827 12.9331 49.9134 13.4177C50.6755 13.4177 51.4556 13.47 52.2217 13.3956C52.5917 13.3594 53.038 13.1664 53.2753 12.8929C54.2083 11.8112 55.0528 10.655 55.9676 9.55717C56.2652 9.19927 56.2954 8.9218 56.1164 8.49151C55.5052 7.01767 55.9958 5.39906 57.2705 4.4842C58.4951 3.60553 60.1559 3.64976 61.3301 4.59077C62.5647 5.58003 62.9608 7.24086 62.3013 8.65839C61.6579 10.0438 60.1539 10.8561 58.6459 10.5585C58.2236 10.4761 58.0085 10.5746 57.7652 10.8862C56.7498 12.1932 55.6821 13.4619 54.6948 14.789C54.2103 15.4425 53.6473 15.722 52.845 15.6878C51.8558 15.6455 50.8645 15.6777 49.8672 15.6777V20.3425C50.9851 20.3425 52.0709 20.238 53.1305 20.3667C54.7753 20.5677 56.0078 20.0409 57.0453 18.7682C57.4274 18.2977 57.6124 17.978 57.4394 17.3526C57.0634 15.9914 57.7873 14.4995 59.048 13.7696C60.3288 13.0276 61.9374 13.2066 63.0231 14.2119C64.119 15.2253 64.4266 16.8017 63.7932 18.1408C63.1759 19.4437 61.68 20.3928 60.357 20.0208C59.3416 19.7353 58.7685 20.055 58.1935 20.7547C58.0045 20.9839 57.7511 21.1589 57.5159 21.372H57.5118ZM27.2087 22.5824C26.0827 22.5824 25.0211 22.685 23.9855 22.5583C22.3227 22.3552 21.0318 22.8358 19.9923 24.1608C19.6666 24.577 19.4474 24.8425 19.6042 25.4396C20.1833 27.6373 18.2129 29.8069 15.977 29.5153C13.9522 29.2499 12.5869 27.394 13.0112 25.4798C13.4576 23.4651 15.3758 22.3593 17.3905 22.9424C17.5815 22.9966 17.8791 23.0449 17.9937 22.9444C18.5325 22.4759 19.0252 21.9531 19.5258 21.4605C19.1398 21.0603 18.7839 20.7386 18.4823 20.3727C18.0902 19.8941 17.6941 19.7815 17.0607 19.9625C15.6713 20.3586 14.1915 19.6911 13.4375 18.4585C12.6633 17.1918 12.8041 15.5852 13.7853 14.4733C14.7605 13.3694 16.2766 13.0156 17.6217 13.5745C18.985 14.1416 20.0245 15.5933 19.6404 16.9847C19.3207 18.1408 19.8817 18.6254 20.5332 19.2326C20.8267 19.5061 21.0962 19.8077 21.3978 20.0691C21.5405 20.1917 21.7356 20.3264 21.9105 20.3285C23.6618 20.3465 25.4111 20.3405 27.2388 20.3405V15.6777C26.0807 15.6777 25.0271 15.6657 23.9755 15.6817C23.3461 15.6918 22.8877 15.4586 22.5017 14.9539C21.4802 13.6208 20.4125 12.3219 19.3851 10.9928C19.0996 10.6228 18.8502 10.4761 18.3315 10.5706C16.3892 10.9224 14.5453 9.38426 14.4529 7.41378C14.3885 6.04852 15.1546 4.7657 16.3791 4.18058C17.6157 3.59145 19.0795 3.8066 20.0949 4.72749C21.1485 5.68458 21.4722 7.09006 21.0037 8.43923C20.9052 8.72274 20.8469 9.16308 20.9977 9.36415C21.9387 10.6329 22.936 11.8594 23.9333 13.0839C24.0599 13.2388 24.2932 13.3916 24.4802 13.3996C25.3769 13.4318 26.2777 13.4137 27.1665 13.4137C27.2027 13.2729 27.2308 13.2026 27.2368 13.1302C27.3856 11.1597 28.4272 10.1745 30.3816 10.1724C32.2877 10.1684 34.1938 10.1724 36.1 10.1724C36.5162 10.1724 36.9344 10.1724 37.3989 10.1724C37.3989 8.91576 37.4129 7.76364 37.3848 6.61151C37.3808 6.42452 37.24 6.18122 37.0852 6.06862C34.2039 3.94734 31.0551 2.41721 27.4198 2.34482C22.381 2.24429 17.3382 2.29455 12.2954 2.28249C11.29 2.28048 11.288 2.28651 11.288 3.27778C11.288 15.3922 11.288 27.5086 11.288 39.6231C11.288 40.6565 11.288 40.6586 12.3416 40.6586C16.9823 40.6586 21.623 40.6586 26.2637 40.6586C29.9935 40.6586 33.4338 41.6619 36.5906 43.6505C36.8138 43.7912 37.045 43.9199 37.3526 44.0989V32.7465C37.0329 32.7465 36.7635 32.7465 36.4921 32.7465C34.3607 32.7465 32.2274 32.7585 30.096 32.7425C28.7067 32.7324 27.6209 31.8638 27.3193 30.5468C27.2429 30.211 27.2388 29.8591 27.1946 29.4389C26.2677 29.4389 25.3448 29.4148 24.4259 29.457C24.2288 29.467 24.0016 29.6802 23.8589 29.8571C22.94 30.9851 22.0573 32.1413 21.1263 33.2592C20.8147 33.6352 20.7765 33.9288 20.9655 34.3912C21.5003 35.7002 21.2349 36.9207 20.2738 37.9381C19.3288 38.9374 18.1344 39.2149 16.8255 38.8248C15.1908 38.3362 14.1794 36.6392 14.5031 35.0065C14.851 33.2492 16.3932 32.0528 18.1666 32.276C18.808 32.3564 19.1579 32.1855 19.5278 31.6889C20.505 30.3839 21.5546 29.1353 22.5519 27.8464C22.9239 27.3659 23.3622 27.1548 23.9695 27.1708C25.0392 27.199 26.1108 27.1789 27.2127 27.1789V22.5784L27.2087 22.5824ZM40.3405 49.6886V46.4775H36.6529C36.6529 47.3421 36.6368 48.3113 36.671 49.2784C36.675 49.4191 36.9183 49.6665 37.0571 49.6705C38.1288 49.7027 39.2005 49.6886 40.3405 49.6886ZM17.4528 16.673C17.4407 16.0738 16.9481 15.5913 16.3429 15.5852C15.7095 15.5792 15.1908 16.098 15.2069 16.7233C15.2209 17.3124 15.7317 17.8211 16.3168 17.8272C16.932 17.8352 17.4649 17.2923 17.4528 16.673ZM61.8529 16.6851C61.8469 16.0859 61.3583 15.5973 60.7551 15.5852C60.1197 15.5712 59.5969 16.0839 59.607 16.7092C59.615 17.2983 60.1177 17.8111 60.7048 17.8251C61.3181 17.8412 61.8589 17.3044 61.8529 16.6851ZM18.9588 7.21673C18.9468 6.62156 18.4441 6.12492 17.8489 6.11688C17.2256 6.10884 16.6968 6.63966 16.7109 7.26298C16.7249 7.85814 17.2256 8.35679 17.8188 8.36483C18.4421 8.37288 18.9709 7.84004 18.9568 7.21673H18.9588ZM59.1908 8.36282C59.7839 8.38293 60.3067 7.9064 60.3469 7.31123C60.3891 6.68993 59.8865 6.13699 59.2611 6.11688C58.666 6.09677 58.1452 6.5713 58.105 7.16646C58.0628 7.78777 58.5674 8.34272 59.1908 8.36282ZM16.3288 25.0455C15.7236 25.0455 15.227 25.518 15.2069 26.1172C15.1868 26.7345 15.7156 27.2834 16.3288 27.2814C16.9421 27.2814 17.4709 26.7325 17.4508 26.1152C17.4307 25.518 16.934 25.0455 16.3288 25.0435V25.0455ZM61.8529 26.1735C61.865 25.5764 61.3905 25.0757 60.7872 25.0475C60.1438 25.0194 59.619 25.502 59.609 26.1333C59.5989 26.7245 60.0815 27.2412 60.6726 27.2754C61.2859 27.3116 61.8408 26.7948 61.8529 26.1735ZM18.9588 35.6359C18.9749 35.0387 18.5044 34.536 17.9012 34.5038C17.2618 34.4697 16.731 34.9522 16.7149 35.5816C16.6988 36.1807 17.1673 36.6814 17.7725 36.7156C18.4099 36.7498 18.9447 36.2652 18.9608 35.6379L18.9588 35.6359ZM59.2511 36.7176C59.8543 36.7055 60.3429 36.2169 60.3489 35.6218C60.357 34.9944 59.8382 34.4877 59.2008 34.5018C58.5956 34.5139 58.111 34.9985 58.103 35.5976C58.0949 36.225 58.6137 36.7317 59.2491 36.7196L59.2511 36.7176Z" fill="#1A325D"/>
<path d="M41.1425 26.2962C40.8349 26.6038 40.5695 27.0743 40.2035 27.1748C39.8617 27.2693 39.3993 27.0039 39.0152 26.8371C38.8906 26.7828 38.8383 26.5475 38.7699 26.3887C38.3624 25.4249 37.6245 24.943 36.5561 24.943C36.3812 24.943 36.2023 24.9611 36.0314 24.941C34.7204 24.7781 33.6628 24.9209 33.3752 26.5576C33.2566 27.2291 32.5106 27.4443 31.9215 27.1869C31.3183 26.9255 31.0931 26.3444 31.3686 25.6025C32.1105 23.6119 32.8746 21.6294 33.6326 19.6428C34.0066 18.6616 34.3947 17.6864 34.7566 16.7012C34.9999 16.0416 35.4523 15.6415 36.15 15.6455C36.8497 15.6516 37.284 16.0698 37.5293 16.7253C38.6332 19.675 39.7531 22.6186 40.863 25.5663C40.9334 25.7513 40.9656 25.9503 41.0139 26.1434C41.0561 26.1956 41.0983 26.2459 41.1405 26.2982L41.1425 26.2962ZM34.9114 22.6367H37.3463C36.9502 21.5952 36.5823 20.62 36.1339 19.4397C35.6795 20.628 35.3115 21.5932 34.9114 22.6367Z" fill="#1A325D"/>
<path d="M42.6675 21.3843C42.6675 19.9326 42.6575 18.4808 42.6716 17.0311C42.6796 16.1504 43.1139 15.6337 43.7996 15.6377C44.4792 15.6417 44.9175 16.1625 44.9215 17.0392C44.9316 19.9909 44.9316 22.9446 44.9215 25.8963C44.9175 26.779 44.4792 27.2937 43.7915 27.2897C43.1119 27.2877 42.6776 26.7649 42.6716 25.8882C42.6595 24.3862 42.6675 22.8863 42.6675 21.3843Z" fill="#1A325D"/>
</svg>
